<?xml version="1.0" encoding="UTF-8" standalone="no"?>
<svg
   xmlns:dc="http://purl.org/dc/elements/1.1/"
   xmlns:cc="http://creativecommons.org/ns#"
   xmlns:rdf="http://www.w3.org/1999/02/22-rdf-syntax-ns#"
   xmlns:svg="http://www.w3.org/2000/svg"
   xmlns="http://www.w3.org/2000/svg"
   xml:space="preserve"
   viewBox="0 0 512 512"
   height="512"
   width="512"
   version="1.1">
<path
   style="fill:#fff"
   id="twitter"
   d="m 496,107.5 c -17.94393,7.5 -35.88785,13.49999 -56.82243,15 20.93458,-12 35.88785,-31.5 43.36449,-53.999998 C 463.10281,80.499998 442.16822,87.999999 419.73832,92.5 401.79439,72.999995 376.37383,61 349.45794,61 c -53.83177,0 -98.69158,43.5 -98.69158,98.99999 0,7.50001 1.49532,15 2.99065,22.50001 C 171.51402,178 99.738316,138.99999 50.392523,79.000003 41.420561,94 36.934579,110.5 36.934579,128.49999 36.934579,163 54.878505,193 80.299066,211 c -16.448599,0 -31.401869,-4.50001 -44.859814,-12.00001 0,0 0,1.5 0,1.5 0,48.00001 34.392524,87 79.252338,96.00001 -8.97196,1.49999 -16.448596,3.00001 -25.420562,3.00001 -5.981308,0 -11.962616,0 -17.943926,-1.50002 C 83.28972,337 120.6729,365.5 162.54206,367 c -32.8972,27 -76.261686,42.00001 -122.616827,42.00001 -7.476635,0 -16.448597,0 -23.925233,-1.5 C 60.859813,434.5 113.19626,451 168.52337,451 c 180.93457,0 279.62616,-150 279.62616,-280.50001 0,-4.49999 0,-8.99999 0,-12 C 466.09346,143.5 482.54206,127 496,107.5 Z" />
</svg>